<svg xmlns="http://www.w3.org/2000/svg" version="1.0" viewBox="0 0 512 512" class="v-icon__component theme--light black--text" style="font-size: 28px; height: 28px; width: 28px;"><path d="M181.6 1.1a218 218 0 0 0-89.3 33.5A209.4 209.4 0 0 0 1.6 178.7 298.5 298.5 0 0 0 1 233a209.8 209.8 0 0 0 91.3 148.4c26 17.6 59.4 29.8 92.1 33.7 12.9 1.5 47.2.6 58.6-1.5a216.4 216.4 0 0 0 77.9-30.6l9.4-6.1 67.6 67.5a3500 3500 0 0 0 68.6 67.6 751 751 0 0 0 45.5-45.5c0-.5-30.4-31.4-67.6-68.6l-67.5-67.6 6-9.4a209.5 209.5 0 0 0 30.7-77.9c2.1-11.4 3-45.7 1.5-58.6a209.5 209.5 0 0 0-91.4-149.8A215.4 215.4 0 0 0 233 1c-9.9-1.2-41.5-1.1-51.4.1zm40.2 64.4a144.3 144.3 0 0 1 89.2 43.1 140 140 0 0 1 40 99.4c0 23.7-4.1 41.4-14.4 62.5a142.4 142.4 0 0 1-217.1 49.9 144 144 0 0 1-53-89.9c-1.8-10.6-2-32.6-.4-42.8A144.3 144.3 0 0 1 210 64.6l11.8.9z"></path></svg>